<?xml version="1.0" encoding="UTF-8"?>
<svg width="500" height="500" version="1.1" viewBox="0 0 1e3 1e3" xmlns="http://www.w3.org/2000/svg">
<rect width="1e3" height="1e3" fill="#fff"/>
<g transform="matrix(.7 0 0 .7 149.58 358.03)">
<svg width="1e3" height="406" data-background-color="#ffffff" viewBox="0 0 396 161" xmlns="http://www.w3.org/2000/svg" xmlns:xlink="http://www.w3.org/1999/xlink">
<g transform="translate(.24 -.071368)">
<svg width="395.52" height="161.14" viewBox="0 0 395.52 161.14273585741657">
<svg width="395.52" height="161.14" viewBox="0 0 493.34845642898415 200.99999999999997">
<rect class="rect-o-0" x="181.22" width="5.5411" height="201" rx="1%" fill="#0080ff" stroke="transparent" stroke-width="0" data-fill-palette-color="primary" data-palette-color="#0080ff"/>
<g transform="translate(201.27 .5)">
<svg width="292.08" height="200" viewBox="0 0 292.08006962576155 200">
<svg width="292.08" height="200" viewBox="0 0 292.08006962576155 200">
<svg width="292.08" height="200" viewBox="0 0 292.08006962576155 200">
<g>
<svg width="292.08" height="200" data-palette-color="#0080ff" viewBox="1.5500011444091797 -34.79999923706055 167.8000030517578 111.4000015258789">
<svg/>
<svg/>
<svg/>
<g class="wordmark-text-0" fill="#0080ff" font-family="none" font-size="none" font-weight="none" stroke-dasharray="" stroke-miterlimit="10" text-anchor="none" data-fill-palette-color="primary">
<path d="m27.65-34.3-1 8.15h-13.55v5.6h12.6v7.7h-12.6v12.85h-10.25v-34.3zm24.7 0 11.45 34.3h-10.9l-2.05-6.1h-10.9l-2 6.1h-10.1l11.45-34.3zm-6.8 10.55h-0.25l-2.95 10.4h6.1zm40.1-10.55c1.633 0 3.177 0.357 4.63 1.07 1.447 0.72 2.62 1.72 3.52 3 0.9 1.287 1.35 2.763 1.35 4.43 0 1.2-0.273 2.383-0.82 3.55-0.553 1.167-1.297 2.167-2.23 3s-1.967 1.35-3.1 1.55v0.25c1.833 0.567 3.21 1.623 4.13 3.17 0.913 1.553 1.37 3.43 1.37 5.63 0 1.567 0.15 2.907 0.45 4.02 0.3 1.12 1 1.83 2.1 2.13v2.05c-1.533 0.633-3.533 0.95-6 0.95-2.367 0-4.133-0.493-5.3-1.48-1.167-0.98-1.75-2.637-1.75-4.97 0-2.2-0.273-3.977-0.82-5.33-0.553-1.347-1.763-2.02-3.63-2.02h-2.9v13.3h-10.25v-34.3zm-9 7.85v5.5h5.3c0.7 0 1.293-0.243 1.78-0.73 0.48-0.48 0.72-1.07 0.72-1.77v-0.5c0-0.7-0.24-1.293-0.72-1.78-0.487-0.48-1.08-0.72-1.78-0.72zm39.9-8.35c2.467 0 4.767 0.533 6.9 1.6s3.833 2.55 5.1 4.45 1.9 4.05 1.9 6.45v0.35h-9.7c0-1.7-0.467-2.967-1.4-3.8s-2.133-1.25-3.6-1.25h-0.25c-1.4 0-2.583 0.483-3.55 1.45s-1.45 2.15-1.45 3.55v9.65c0 1.4 0.483 2.583 1.45 3.55s2.15 1.45 3.55 1.45h0.9c1.4 0 2.477-0.443 3.23-1.33 0.747-0.88 1.12-2.12 1.12-3.72h-5.8v-6.8h15.5v12c0 2.633 0.05 4.367 0.15 5.2l0.2 2h-5.6l-1.4-3.65c-1.067 1.2-2.507 2.19-4.32 2.97-1.82 0.787-3.647 1.18-5.48 1.18h-0.5c-2.7 0-5.14-0.667-7.32-2-2.187-1.333-3.897-3.15-5.13-5.45s-1.85-4.817-1.85-7.55v-5.3c0-2.767 0.677-5.293 2.03-7.58 1.347-2.28 3.237-4.087 5.67-5.42s5.183-2 8.25-2zm35.4 0.1c2.733 0 5.243 0.673 7.53 2.02 2.28 1.353 4.097 3.17 5.45 5.45 1.347 2.287 2.02 4.797 2.02 7.53v5.2c0 2.733-0.673 5.24-2.02 7.52-1.353 2.287-3.17 4.103-5.45 5.45-2.287 1.353-4.797 2.03-7.53 2.03h-2.8c-2.733 0-5.24-0.677-7.52-2.03-2.287-1.347-4.103-3.163-5.45-5.45-1.353-2.28-2.03-4.787-2.03-7.52v-5.2c0-2.733 0.677-5.243 2.03-7.53 1.347-2.28 3.163-4.097 5.45-5.45 2.28-1.347 4.787-2.02 7.52-2.02zm-1.5 7.7c-1.4 0-2.583 0.483-3.55 1.45s-1.45 2.15-1.45 3.55v9.65c0 1.4 0.483 2.583 1.45 3.55s2.15 1.45 3.55 1.45h0.25c1.4 0 2.583-0.483 3.55-1.45s1.45-2.15 1.45-3.55v-9.65c0-1.4-0.483-2.583-1.45-3.55s-2.15-1.45-3.55-1.45z" style="mix-blend-mode:normal" data-fill-palette-color="primary" xmlns="http://www.w3.org/2000/svg"/>
<path d="m18.45 3.5c2.767 0 5.243 0.54 7.43 1.62 2.18 1.087 3.903 2.72 5.17 4.9 1.267 2.187 1.9 4.863 1.9 8.03h-9.85v-1.75c0-1.533-0.473-2.75-1.42-3.65-0.953-0.9-2.147-1.35-3.58-1.35h-0.25c-1.4 0-2.583 0.483-3.55 1.45s-1.45 2.15-1.45 3.55v9.65c0 1.4 0.483 2.583 1.45 3.55s2.15 1.45 3.55 1.45h0.7c1.433 0 2.627-0.443 3.58-1.33 0.947-0.88 1.42-2.103 1.42-3.67v-1.65h9.4c0 2.933-0.607 5.5-1.82 7.7-1.22 2.2-2.897 3.883-5.03 5.05s-4.55 1.75-7.25 1.75h-1.4c-2.967 0-5.657-0.6-8.07-1.8-2.42-1.2-4.33-2.933-5.73-5.2s-2.1-4.933-2.1-8v-5.3c0-2.9 0.71-5.493 2.13-7.78 1.413-2.28 3.303-4.053 5.67-5.32s4.933-1.9 7.7-1.9zm37.8 0.5c1.633 0 3.177 0.357 4.63 1.07 1.447 0.72 2.62 1.72 3.52 3 0.9 1.287 1.35 2.763 1.35 4.43 0 1.2-0.277 2.383-0.83 3.55-0.547 1.167-1.287 2.167-2.22 3s-1.967 1.35-3.1 1.55v0.25c1.833 0.567 3.21 1.623 4.13 3.17 0.913 1.553 1.37 3.43 1.37 5.63 0 1.567 0.15 2.907 0.45 4.02 0.3 1.12 1 1.83 2.1 2.13v2.05c-1.533 0.633-3.533 0.95-6 0.95-2.367 0-4.133-0.493-5.3-1.48-1.167-0.98-1.75-2.637-1.75-4.97 0-2.2-0.277-3.977-0.83-5.33-0.547-1.347-1.753-2.02-3.62-2.02h-2.9v13.3h-10.25v-34.3zm-9 7.85v5.5h5.3c0.7 0 1.293-0.243 1.78-0.73 0.48-0.48 0.72-1.07 0.72-1.77v-0.5c0-0.7-0.24-1.293-0.72-1.78-0.487-0.48-1.08-0.72-1.78-0.72zm41.5-7.85v7.35h-4.05v19.55h4.05v7.4h-18.7v-7.4h4.05v-19.55h-4.05v-7.35zm49.15 0v34.3h-10.5v-22h-0.2l-6 22h-12.05l-5.95-22h-0.25v22h-9.55v-34.3h17.2l4.95 18.3h0.2l4.85-18.3zm31.45 0-1 7.9h-14.45v5h13.9v7.65h-13.9v5.55h14.45l1 8.2h-25.75v-34.3z" style="mix-blend-mode:normal" data-fill-palette-color="primary" xmlns="http://www.w3.org/2000/svg"/>
<path d="m47.35 42.3v34.3h-10.5v-22h-0.2l-6 22h-12.05l-5.95-22h-0.25v22h-9.55v-34.3h17.2l4.95 18.3h0.2l4.85-18.3zm27.1 0 11.45 34.3h-10.9l-2.05-6.1h-10.9l-2 6.1h-10.1l11.45-34.3zm-6.8 10.55h-0.25l-2.95 10.4h6.1zm39.1-10.55c1.9 0 3.66 0.467 5.28 1.4 1.613 0.933 2.887 2.207 3.82 3.82 0.933 1.62 1.4 3.38 1.4 5.28v1.1c0 1.9-0.467 3.657-1.4 5.27-0.933 1.62-2.207 2.897-3.82 3.83-1.62 0.933-3.38 1.4-5.28 1.4h-7.75v12.2h-10.5v-34.3zm-7.75 7.85v6.6h4.6c0.933 0 1.667-0.31 2.2-0.93 0.533-0.613 0.8-1.303 0.8-2.07v-0.6c0-0.767-0.257-1.46-0.77-2.08-0.52-0.613-1.263-0.92-2.23-0.92z" style="mix-blend-mode:normal" data-fill-palette-color="primary" xmlns="http://www.w3.org/2000/svg"/>
</g>
</svg>
</g>
</svg>
</svg>
</svg>
</g>
<g transform="translate(0 .5)">
<svg width="166.72" height="200" viewBox="0 0 166.71598292228265 200.00000000000003">
<svg class="icon-icon-0" width="166.72" height="200" enable-background="new 0 0 100 100" fill="#080d45" data-fill-palette-color="accent" version="1.1" viewBox="11.368000030517578 2.8299999237060547 78.93499755859375 94.69397735595703" xml:space="preserve" xmlns="http://www.w3.org/2000/svg" xmlns:xlink="http://www.w3.org/1999/xlink"><path d="m85.235 4.888-21.907 8.898-0.291 0.119-0.164-0.073-15.831-7.718-1.064-0.472v-0.07l-1.682-0.735-0.08 0.023-0.021-0.01-2.327 0.647v0.018l-0.561 0.157-29.939 8.362v83.245l4.672-1.305 27.246-7.609 0.723-0.202 3e-3 2e-3 15.831 7.979 0.788 0.361 2.254 1.019 2.177-0.883v-0.011l1.038-0.421 21.906-8.899 2.297-0.932v-83.548l-5.068 2.058zm-43.368 4.592v75.46l-26.817 7.489v-75.6l26.817-7.49v0.141zm19.165 7.717v75.439l-15.055-7.62v-75.347l15.055 7.374v0.154zm25.589 66.702-21.56 8.756v-75.6l21.56-8.757v75.601z" data-fill-palette-color="accent"/><path d="m29.89 58.547c-4.102-6.664-8.007-10.318-12.079-11.338v40.874l5.006-1.384c0.929-9.375 4.646-20.761 7.073-28.152z" data-fill-palette-color="accent"/><path d="m28.194 33.715-10.383-3.71v14.194c2.747 0.52 5.33 1.891 7.865 4.226l2.518-14.71z" data-fill-palette-color="accent"/><path d="m31.866 61.987c-2.059 6.359-4.978 15.914-5.976 23.862l13.031-3.603v-11.071c-4.711-2.288-6.671-7.931-7.055-9.188z" data-fill-palette-color="accent"/><path d="m28.817 30.08c0.065-0.417 1.054-7.196-2.713-13.271l-8e-3 -6e-3 -8.285 2.291v7.783l10.888 3.89 0.118-0.687z" data-fill-palette-color="accent"/><path d="m28.997 16.001-4e-3 0.013c3.861 6.958 2.75 14.433 2.73 14.549l-3.438 20.08-0.09 0.438c2.243 2.556 4.015 5.354 6.313 9.566l0.083 0.152 0.045 0.168c0.015 0.056 1.245 4.402 4.285 6.758v-54.468l-9.924 2.744z" data-fill-palette-color="accent"/><path d="m53.392 72.14c-2.32-1.894-1.858-6.787-0.888-14.034 0.351-2.621 0.859-6.424 0.618-7.881-0.212 0.136-0.517 0.362-0.928 0.736-2.143 1.946-3.249 4.535-3.903 7.193v24.63l10.181 5.007v-14.936c-0.72 0.13-1.403 0.215-2.025 0.215-1.227 0-2.257-0.277-3.055-0.93z" data-fill-palette-color="accent"/><path d="m55.332 35.167c-2.194 2.464-0.69 11.213-0.058 12.752 1.278 1.521 0.91 4.889 0.148 10.576-0.484 3.623-1.387 10.366-0.169 11.362 0.521 0.423 1.706 0.351 3.219 3e-3v-34.88c-0.143-0.061-0.284-0.13-0.432-0.175-1.871-0.573-2.478 0.106-2.708 0.362z" data-fill-palette-color="accent"/><path d="M48.292 14.501v36.447c0.552-0.766 1.182-1.496 1.922-2.168 0.373-0.338 1.07-0.967 1.899-1.359-0.841-3.53-1.732-10.538 0.724-13.847 0.744-1.003 2.449-2.506 5.637-1.701V19.508L48.292 14.501z" data-fill-palette-color="accent"/><path d="m55.21 47.844c9e-3 0.01 0.02 0.019 0.029 0.029-8e-3 -0.01-0.015-0.027-0.021-0.035l-8e-3 6e-3z" data-fill-palette-color="accent"/><path d="m68.225 69.615c-0.199 0.079-0.389 0.151-0.585 0.229v18.791l16.384-7.002v-15.514c-0.157-0.051-0.307-0.099-0.465-0.152-3.236-1.08-9.663 1.433-15.334 3.648z" data-fill-palette-color="accent"/><path d="M67.64 19.895v23.254c0.638 1.593 1.229 3.226 1.802 4.811 1.455 4.026 3.465 9.531 5.017 9.284 1.009-0.166 1.409-1.033 2.298-3.472 1.056-2.896 2.542-6.961 7.268-10.535V12.893L67.64 19.895z" data-fill-palette-color="accent"/><path d="m74.934 60.15c-0.216 0.035-0.428 0.053-0.633 0.053-3.031 0-4.852-3.782-6.661-8.602v15.08c6.056-2.363 12.239-4.699 16.384-3.633v-15.922c-2.67 2.646-3.688 5.43-4.5 7.654-0.921 2.526-1.791 4.912-4.59 5.37z" data-fill-palette-color="accent"/></svg>
</svg>
</g>
</svg>
</svg>
<rect width="395.52" height="161.14" fill="none" visibility="hidden"/>
</g>
</svg>
</g>
</svg>
