<svg xmlns="http://www.w3.org/2000/svg" version="1.1" xmlns:xlink="http://www.w3.org/1999/xlink" xmlns:svgjs="http://svgjs.dev/svgjs" width="1000" height="1000" viewBox="0 0 1000 1000"><rect width="1000" height="1000" fill="#ffffff"></rect><g transform="matrix(0.7,0,0,0.7,149.57575762142898,358.0259799089372)"><svg viewBox="0 0 396 161" data-background-color="#ffffff" preserveAspectRatio="xMidYMid meet" height="406" width="1000" xmlns="http://www.w3.org/2000/svg" xmlns:xlink="http://www.w3.org/1999/xlink"><g id="tight-bounds" transform="matrix(1,0,0,1,0.24000002583704827,-0.07136792870828401)"><svg viewBox="0 0 395.52 161.14273585741657" height="161.14273585741657" width="395.52"><g><svg viewBox="0 0 493.34845642898415 200.99999999999997" height="161.14273585741657" width="395.52"><g><rect width="5.541149572845954" height="200.99999999999997" x="181.22161007632965" y="0" fill="#0080ff" opacity="1" stroke-width="0" stroke="transparent" fill-opacity="1" class="rect-o-0" data-fill-palette-color="primary" rx="1%" id="o-0" data-palette-color="#0080ff"></rect></g><g transform="matrix(1,0,0,1,201.26838680322263,0.4999999999999858)"><svg viewBox="0 0 292.08006962576155 200" height="200" width="292.08006962576155"><g id="textblocktransform"><svg viewBox="0 0 292.08006962576155 200" height="200" width="292.08006962576155" id="textblock"><g><svg viewBox="0 0 292.08006962576155 200" height="200" width="292.08006962576155"><g transform="matrix(1,0,0,1,0,0)"><svg width="292.08006962576155" viewBox="1.5500011444091797 -34.79999923706055 167.8000030517578 111.4000015258789" height="200" data-palette-color="#0080ff"><svg></svg><svg></svg><svg></svg><g class="wordmark-text-0" data-fill-palette-color="primary" id="text-0"><path xmlns="http://www.w3.org/2000/svg" d="M27.65-34.3l-1 8.15h-13.55v5.6h12.6v7.7h-12.6v12.85h-10.25v-34.3zM52.35-34.3l11.45 34.3h-10.9l-2.05-6.1h-10.9l-2 6.1h-10.1l11.45-34.3zM45.55-23.75h-0.25l-2.95 10.4h6.1zM85.65-34.3c1.633 0 3.177 0.357 4.63 1.07 1.447 0.72 2.62 1.72 3.52 3 0.9 1.287 1.35 2.763 1.35 4.43v0c0 1.2-0.273 2.383-0.82 3.55-0.553 1.167-1.297 2.167-2.23 3-0.933 0.833-1.967 1.35-3.1 1.55v0 0.25c1.833 0.567 3.21 1.623 4.13 3.17 0.913 1.553 1.37 3.43 1.37 5.63v0c0 1.567 0.15 2.907 0.45 4.02 0.3 1.12 1 1.83 2.1 2.13v0 2.05c-1.533 0.633-3.533 0.95-6 0.95v0c-2.367 0-4.133-0.493-5.3-1.48-1.167-0.98-1.75-2.637-1.75-4.97v0c0-2.2-0.273-3.977-0.82-5.33-0.553-1.347-1.763-2.02-3.63-2.02v0h-2.9v13.3h-10.25v-34.3zM76.65-26.45v5.5h5.3c0.7 0 1.293-0.243 1.78-0.73 0.48-0.48 0.72-1.07 0.72-1.77v0-0.5c0-0.7-0.24-1.293-0.72-1.78-0.487-0.48-1.08-0.72-1.78-0.72v0zM116.55-34.8c2.467 0 4.767 0.533 6.9 1.6 2.133 1.067 3.833 2.55 5.1 4.45 1.267 1.9 1.9 4.05 1.9 6.45v0 0.35h-9.7c0-1.7-0.467-2.967-1.4-3.8-0.933-0.833-2.133-1.25-3.6-1.25v0h-0.25c-1.4 0-2.583 0.483-3.55 1.45-0.967 0.967-1.45 2.15-1.45 3.55v0 9.65c0 1.4 0.483 2.583 1.45 3.55 0.967 0.967 2.15 1.45 3.55 1.45v0h0.9c1.4 0 2.477-0.443 3.23-1.33 0.747-0.88 1.12-2.12 1.12-3.72v0h-5.8v-6.8h15.5v12c0 2.633 0.05 4.367 0.15 5.2v0l0.2 2h-5.6l-1.4-3.65c-1.067 1.2-2.507 2.19-4.32 2.97-1.82 0.787-3.647 1.18-5.48 1.18v0h-0.5c-2.7 0-5.14-0.667-7.32-2-2.187-1.333-3.897-3.15-5.13-5.45-1.233-2.3-1.85-4.817-1.85-7.55v0-5.3c0-2.767 0.677-5.293 2.03-7.58 1.347-2.28 3.237-4.087 5.67-5.42 2.433-1.333 5.183-2 8.25-2v0zM151.95-34.7c2.733 0 5.243 0.673 7.53 2.02 2.28 1.353 4.097 3.17 5.45 5.45 1.347 2.287 2.02 4.797 2.02 7.53v0 5.2c0 2.733-0.673 5.24-2.02 7.52-1.353 2.287-3.17 4.103-5.45 5.45-2.287 1.353-4.797 2.03-7.53 2.03v0h-2.8c-2.733 0-5.24-0.677-7.52-2.03-2.287-1.347-4.103-3.163-5.45-5.45-1.353-2.28-2.03-4.787-2.03-7.52v0-5.2c0-2.733 0.677-5.243 2.03-7.53 1.347-2.28 3.163-4.097 5.45-5.45 2.28-1.347 4.787-2.02 7.52-2.02v0zM150.45-27c-1.4 0-2.583 0.483-3.55 1.45-0.967 0.967-1.45 2.15-1.45 3.55v0 9.65c0 1.4 0.483 2.583 1.45 3.55 0.967 0.967 2.15 1.45 3.55 1.45v0h0.25c1.4 0 2.583-0.483 3.55-1.45 0.967-0.967 1.45-2.15 1.45-3.55v0-9.65c0-1.4-0.483-2.583-1.45-3.55-0.967-0.967-2.15-1.45-3.55-1.45v0z" fill="#0080ff" fill-rule="nonzero" stroke="none" stroke-width="1" stroke-linecap="butt" stroke-linejoin="miter" stroke-miterlimit="10" stroke-dasharray="" stroke-dashoffset="0" font-family="none" font-weight="none" font-size="none" text-anchor="none" style="mix-blend-mode: normal" data-fill-palette-color="primary" opacity="1"></path><path xmlns="http://www.w3.org/2000/svg" d="M18.45 3.5c2.767 0 5.243 0.54 7.43 1.62 2.18 1.087 3.903 2.72 5.17 4.9 1.267 2.187 1.9 4.863 1.9 8.03v0h-9.85v-1.75c0-1.533-0.473-2.75-1.42-3.65-0.953-0.9-2.147-1.35-3.58-1.35v0h-0.25c-1.4 0-2.583 0.483-3.55 1.45-0.967 0.967-1.45 2.15-1.45 3.55v0 9.65c0 1.4 0.483 2.583 1.45 3.55 0.967 0.967 2.15 1.45 3.55 1.45v0h0.7c1.433 0 2.627-0.443 3.58-1.33 0.947-0.88 1.42-2.103 1.42-3.67v0-1.65h9.4c0 2.933-0.607 5.5-1.82 7.7-1.22 2.2-2.897 3.883-5.03 5.05-2.133 1.167-4.55 1.75-7.25 1.75v0h-1.4c-2.967 0-5.657-0.6-8.07-1.8-2.42-1.2-4.33-2.933-5.73-5.2-1.4-2.267-2.1-4.933-2.1-8v0-5.3c0-2.9 0.71-5.493 2.13-7.78 1.413-2.28 3.303-4.053 5.67-5.32 2.367-1.267 4.933-1.9 7.7-1.9v0zM56.25 4c1.633 0 3.177 0.357 4.63 1.07 1.447 0.72 2.62 1.72 3.52 3 0.9 1.287 1.35 2.763 1.35 4.43v0c0 1.2-0.277 2.383-0.83 3.55-0.547 1.167-1.287 2.167-2.22 3-0.933 0.833-1.967 1.35-3.1 1.55v0 0.25c1.833 0.567 3.21 1.623 4.13 3.17 0.913 1.553 1.37 3.43 1.37 5.63v0c0 1.567 0.15 2.907 0.45 4.02 0.3 1.12 1 1.83 2.1 2.13v0 2.05c-1.533 0.633-3.533 0.95-6 0.95v0c-2.367 0-4.133-0.493-5.3-1.48-1.167-0.98-1.75-2.637-1.75-4.97v0c0-2.2-0.277-3.977-0.83-5.33-0.547-1.347-1.753-2.02-3.62-2.02v0h-2.9v13.3h-10.25v-34.3zM47.25 11.85v5.5h5.3c0.7 0 1.293-0.243 1.78-0.73 0.48-0.48 0.72-1.07 0.72-1.77v0-0.5c0-0.7-0.24-1.293-0.72-1.78-0.487-0.48-1.08-0.72-1.78-0.72v0zM88.75 4v7.35h-4.05v19.55h4.05v7.4h-18.7v-7.4h4.05v-19.55h-4.05v-7.35zM137.9 4v34.3h-10.5v-22h-0.2l-6 22h-12.05l-5.95-22h-0.25v22h-9.55v-34.3h17.2l4.95 18.3h0.2l4.85-18.3zM169.35 4l-1 7.9h-14.45v5h13.9v7.65h-13.9v5.55h14.45l1 8.2h-25.75v-34.3z" fill="#0080ff" fill-rule="nonzero" stroke="none" stroke-width="1" stroke-linecap="butt" stroke-linejoin="miter" stroke-miterlimit="10" stroke-dasharray="" stroke-dashoffset="0" font-family="none" font-weight="none" font-size="none" text-anchor="none" style="mix-blend-mode: normal" data-fill-palette-color="primary" opacity="1"></path><path xmlns="http://www.w3.org/2000/svg" d="M47.35 42.3v34.3h-10.5v-22h-0.2l-6 22h-12.05l-5.95-22h-0.25v22h-9.55v-34.3h17.2l4.95 18.3h0.2l4.85-18.3zM74.45 42.3l11.45 34.3h-10.9l-2.05-6.1h-10.9l-2 6.1h-10.1l11.45-34.3zM67.65 52.85h-0.25l-2.95 10.4h6.1zM106.75 42.3c1.9 0 3.66 0.467 5.28 1.4 1.613 0.933 2.887 2.207 3.82 3.82 0.933 1.62 1.4 3.38 1.4 5.28v0 1.1c0 1.9-0.467 3.657-1.4 5.27-0.933 1.62-2.207 2.897-3.82 3.83-1.62 0.933-3.38 1.4-5.28 1.4v0h-7.75v12.2h-10.5v-34.3zM99 50.15v6.6h4.6c0.933 0 1.667-0.31 2.2-0.93 0.533-0.613 0.8-1.303 0.8-2.07v0-0.6c0-0.767-0.257-1.46-0.77-2.08-0.52-0.613-1.263-0.92-2.23-0.92v0z" fill="#0080ff" fill-rule="nonzero" stroke="none" stroke-width="1" stroke-linecap="butt" stroke-linejoin="miter" stroke-miterlimit="10" stroke-dasharray="" stroke-dashoffset="0" font-family="none" font-weight="none" font-size="none" text-anchor="none" style="mix-blend-mode: normal" data-fill-palette-color="primary" opacity="1"></path></g></svg></g></svg></g></svg></g></svg></g><g transform="matrix(1,0,0,1,0,0.4999999999999716)"><svg viewBox="0 0 166.71598292228265 200.00000000000003" height="200.00000000000003" width="166.71598292228265"><g><svg xmlns="http://www.w3.org/2000/svg" xmlns:xlink="http://www.w3.org/1999/xlink" version="1.1" x="0" y="0" viewBox="11.368000030517578 2.8299999237060547 78.93499755859375 94.69397735595703" enable-background="new 0 0 100 100" xml:space="preserve" height="200.00000000000003" width="166.71598292228265" class="icon-icon-0" data-fill-palette-color="accent" id="icon-0"><path fill="#080d45" d="M85.235 4.888l-21.907 8.898-0.291 0.119-0.164-0.073L47.042 6.114l-1.064-0.472v-0.07l-1.682-0.735-0.08 0.023-0.021-0.01-2.327 0.647v0.018l-0.561 0.157L14.06 13.282l-2.692 0.752v2.794 75.6 4.851l4.672-1.305 27.246-7.609 0.723-0.202 0.003 0.002 15.831 7.979 0.788 0.361 2.254 1.019 2.177-0.883V96.63l1.038-0.421 21.906-8.899 2.297-0.932v-2.479V8.299 2.83L85.235 4.888zM41.867 9.48v75.34 0.12L15.05 92.429v-75.6l26.817-7.49V9.48zM61.032 17.197v75.439l-15.055-7.62V84.82 9.669l15.055 7.374V17.197zM86.621 83.899l-21.56 8.756V17.197v-0.142l21.56-8.757V83.899z" data-fill-palette-color="accent"></path><path fill="#080d45" d="M29.89 58.547c-4.102-6.664-8.007-10.318-12.079-11.338v40.874l5.006-1.384C23.746 77.324 27.463 65.938 29.89 58.547z" data-fill-palette-color="accent"></path><path fill="#080d45" d="M28.194 33.715l-10.383-3.71v14.194c2.747 0.52 5.33 1.891 7.865 4.226L28.194 33.715z" data-fill-palette-color="accent"></path><path fill="#080d45" d="M31.866 61.987c-2.059 6.359-4.978 15.914-5.976 23.862l13.031-3.603V71.175C34.21 68.887 32.25 63.244 31.866 61.987z" data-fill-palette-color="accent"></path><path fill="#080d45" d="M28.817 30.08c0.065-0.417 1.054-7.196-2.713-13.271l-0.008-0.006-8.285 2.291v7.783l10.888 3.89L28.817 30.08z" data-fill-palette-color="accent"></path><path fill="#080d45" d="M28.997 16.001l-0.004 0.013c3.861 6.958 2.75 14.433 2.73 14.549l-3.438 20.08-0.09 0.438c2.243 2.556 4.015 5.354 6.313 9.566l0.083 0.152 0.045 0.168c0.015 0.056 1.245 4.402 4.285 6.758V13.257L28.997 16.001z" data-fill-palette-color="accent"></path><path fill="#080d45" d="M53.392 72.14c-2.32-1.894-1.858-6.787-0.888-14.034 0.351-2.621 0.859-6.424 0.618-7.881-0.212 0.136-0.517 0.362-0.928 0.736-2.143 1.946-3.249 4.535-3.903 7.193v24.63l10.181 5.007V72.855c-0.72 0.13-1.403 0.215-2.025 0.215C55.22 73.07 54.19 72.793 53.392 72.14z" data-fill-palette-color="accent"></path><path fill="#080d45" d="M55.332 35.167c-2.194 2.464-0.69 11.213-0.058 12.752 1.278 1.521 0.91 4.889 0.148 10.576-0.484 3.623-1.387 10.366-0.169 11.362 0.521 0.423 1.706 0.351 3.219 0.003V34.98c-0.143-0.061-0.284-0.13-0.432-0.175C56.169 34.232 55.562 34.911 55.332 35.167z" data-fill-palette-color="accent"></path><path fill="#080d45" d="M48.292 14.501v36.447c0.552-0.766 1.182-1.496 1.922-2.168 0.373-0.338 1.07-0.967 1.899-1.359-0.841-3.53-1.732-10.538 0.724-13.847 0.744-1.003 2.449-2.506 5.637-1.701V19.508L48.292 14.501z" data-fill-palette-color="accent"></path><path fill="#080d45" d="M55.21 47.844c0.009 0.01 0.02 0.019 0.029 0.029-0.008-0.01-0.015-0.027-0.021-0.035L55.21 47.844z" data-fill-palette-color="accent"></path><path fill="#080d45" d="M68.225 69.615c-0.199 0.079-0.389 0.151-0.585 0.229v18.791l16.384-7.002V66.119c-0.157-0.051-0.307-0.099-0.465-0.152C80.323 64.887 73.896 67.4 68.225 69.615z" data-fill-palette-color="accent"></path><path fill="#080d45" d="M67.64 19.895v23.254c0.638 1.593 1.229 3.226 1.802 4.811 1.455 4.026 3.465 9.531 5.017 9.284 1.009-0.166 1.409-1.033 2.298-3.472 1.056-2.896 2.542-6.961 7.268-10.535V12.893L67.64 19.895z" data-fill-palette-color="accent"></path><path fill="#080d45" d="M74.934 60.15c-0.216 0.035-0.428 0.053-0.633 0.053-3.031 0-4.852-3.782-6.661-8.602v15.08c6.056-2.363 12.239-4.699 16.384-3.633V47.126c-2.67 2.646-3.688 5.43-4.5 7.654C78.603 57.306 77.733 59.692 74.934 60.15z" data-fill-palette-color="accent"></path></svg></g></svg></g></svg></g><defs></defs></svg><rect width="395.52" height="161.14273585741657" fill="none" stroke="none" visibility="hidden"></rect></g></svg></g></svg>